<?xml version="1.0" encoding="utf-8"?>
<!-- Generator: Adobe Illustrator 26.2.1, SVG Export Plug-In . SVG Version: 6.00 Build 0)  -->
<svg version="1.1" id="Layer_1" xmlns="http://www.w3.org/2000/svg" xmlns:xlink="http://www.w3.org/1999/xlink" x="0px" y="0px"
	 viewBox="0 0 1058 1317.3" style="enable-background:new 0 0 1058 1317.3;" xml:space="preserve">
<style type="text/css">
	.st0{fill:#29ABE2;}
	.st1{fill:#006837;}
	.st2{fill:none;stroke:#FFFFFF;stroke-width:4;stroke-miterlimit:10;}
	.st3{fill:none;stroke:#FFFFFF;stroke-width:3;stroke-miterlimit:10;}
	.st4{fill:#FFFFFF;}
	.st5{clip-path:url(#SVGID_00000047756351854415726210000004940608859338424988_);}
	.st6{clip-path:url(#SVGID_00000075844790288423033890000009781087419123451034_);}
	.st7{fill:none;stroke:#000000;stroke-width:4;stroke-miterlimit:10;}
	.st8{fill:none;stroke:#000000;stroke-width:3;stroke-miterlimit:10;}
	.st9{clip-path:url(#SVGID_00000178883058753267102110000012820679052814015887_);}
	.st10{clip-path:url(#SVGID_00000023271396915187440290000013200044753486889899_);}
</style>
<g>
	<path class="st0" d="M932.9,790.3c13.5,0,24.3,11.4,23.5,24.9c-5,84.9-35.7,162.8-84.3,226.2c1.6-11.5-10.2-21.5-21.9-23.7
		c-12-2.3-24.4,0.3-36.6-1.1c-12.1-1.5-25.3-9.5-25.5-21.8c-0.1-4.4,1.5-8.6,3.5-12.5c7.1-14.6,18.2-26.7,27.2-40.2
		c9-13.5,16.2-29.4,13.7-45.5c-0.6-4-1.9-7.9-4.6-10.9c-4-4.4-10.3-5.8-16.2-6.6c-15.4-2.1-31.3-1.9-46.1,3
		c-14.7,4.9-28.1,15-34.9,28.9c-6.1,12.5-6.6,27.1-12.7,39.5c-7.3,14.7-21.8,24.7-37.4,30.1c-15.5,5.3-32.1,6.6-48.5,7.7
		c-12.3,0.9-24.8,1.8-36.5,5.8c-11.7,4.1-22.6,11.8-27.7,23c-6.4,13.9-2.8,30.7,4.8,44c7.6,13.3,18.8,24.1,28.8,35.7
		c10,11.6,19.1,24.8,21.3,40c3.2,22.4-11.5,46.8-27.5,63.3c-16.8,2.1-34,3.2-51.4,3.2c-49.1,0-96.2-8.6-139.9-24.3
		c7.3-2.8,16.7-12.2,15.8-18.3c-1-7.2-5.1-13.5-6.7-20.6c-2.6-11,1.3-23.3,9.7-30.8c11-9.8,27.2-10.7,40.6-16.8
		c4.9-2.2,9.5-5.2,12.5-9.6c6.5-9.6,3.4-22.6-1.2-33.3c-10.2-23.5-26.9-44.3-47.7-59.3c-13.4-9.7-29.2-17.8-36.8-32.5
		c-4.7-9.1-5.6-19.6-7-29.7c-2.5-17.5-7.8-35.9-21.4-47.1c-11.4-9.4-26.9-12.2-41.7-12.1c-14.9,0.1-30,2.9-42.9,10.2
		c-12.4,6.9-22.3,17.5-33.7,26c-25.2,18.8-58.2,26.9-89.3,22l-0.3,0.1c-12.4-35.4-20.2-73-22.5-112c-0.8-13.5,10-24.9,23.5-24.9
		h319.1c-2.5,8.6-10.3,14.4-16.9,20.4c-6.7,6.1-13,14.6-10.8,23.3c2.3,9.4,12.9,13.8,22.2,16.2c9.6,2.5,19.4,4.2,29.2,5.3
		c9.4,1,19.7,1.8,26.7,8.1c6.3,5.7,8.5,14.6,13.8,21.1c9.7,12.1,27.1,13.9,42.6,14.1c9,0.2,18.3,0,26.5-3.8
		c8.1-3.8,14.7-12.5,13.3-21.4c-2-12.2-17.6-21.6-13.4-33.2c2-5.6,8.1-8.6,13.7-10.9c8.8-3.5,18-6.7,25.1-13
		c6.3-5.6,9.3-17.7,7.3-26.4H932.9z M907,928.7c2.2-4,0.9-10.2-3.5-11.5c-4.7-1.4-8.9,3-12.5,6.4c-3.7,3.4-8.2,6-12.9,7.7
		c-5.5,1.9-11.5,2.4-16.5,5.3c-5,2.9-10.2,13.9-7.2,18.9c1.7,2,4.3,3,7,3.3c5.7,0.6,11.7-1.6,15.5-5.9c2.7-3,4.4-7,7.3-9.8
		c3.3-3.2,7.9-4.7,12.1-6.3C900.5,935,904.9,932.7,907,928.7z"/>
	<path class="st1" d="M903.5,917.2c4.4,1.3,5.7,7.5,3.5,11.5c-2.2,4-6.6,6.3-10.8,8c-4.2,1.7-8.8,3.2-12.1,6.3
		c-2.9,2.8-4.6,6.7-7.3,9.8c-3.8,4.3-9.8,6.5-15.5,5.9c-2.6-0.3-5.3-1.2-7-3.3c-2.9-5,2.2-16,7.2-18.9c5-2.9,11-3.5,16.5-5.3
		c4.8-1.6,9.2-4.2,12.9-7.7C894.6,920.2,898.8,915.8,903.5,917.2z"/>
	<path class="st1" d="M850.2,1017.7c11.6,2.3,23.4,12.2,21.9,23.7c-65.7,85.7-164.2,144.9-276.7,158.8
		c16.1-16.5,30.7-40.9,27.5-63.3c-2.2-15.2-11.3-28.4-21.3-40c-10-11.6-21.2-22.4-28.8-35.7c-7.6-13.3-11.2-30.1-4.8-44
		c5.2-11.2,16.1-19,27.7-23c11.7-4.1,24.1-5,36.5-5.8c16.4-1.2,32.9-2.4,48.5-7.7c15.5-5.4,30.1-15.4,37.4-30.1
		c6.2-12.4,6.7-27,12.7-39.5c6.8-14,20.2-24,34.9-28.9c14.7-4.9,30.7-5.1,46.1-3c5.9,0.8,12.2,2.2,16.2,6.6c2.7,3,4,7,4.6,10.9
		c2.5,16-4.7,32-13.7,45.5c-9,13.5-20.2,25.6-27.2,40.2c-1.9,3.9-3.5,8.2-3.5,12.5c0.2,12.2,13.4,20.3,25.5,21.8
		C825.8,1018.1,838.2,1015.4,850.2,1017.7z"/>
	<path class="st1" d="M653.3,790.3c2,8.7-0.9,20.8-7.3,26.4c-7.1,6.3-16.3,9.5-25.1,13c-5.6,2.2-11.7,5.2-13.7,10.9
		c-4.2,11.6,11.5,21,13.4,33.2c1.4,8.9-5.1,17.5-13.3,21.4c-8.1,3.8-17.5,4-26.5,3.8c-15.5-0.3-32.9-2-42.6-14.1
		c-5.3-6.6-7.5-15.5-13.8-21.1c-7-6.3-17.3-7.1-26.7-8.1c-9.9-1.1-19.6-2.9-29.2-5.3c-9.3-2.4-19.9-6.8-22.2-16.2
		c-2.2-8.8,4.1-17.3,10.8-23.3c6.6-6,14.5-11.8,16.9-20.4H653.3z"/>
	<path class="st1" d="M474.9,1049.9c4.6,10.6,7.7,23.7,1.2,33.3c-3,4.4-7.6,7.4-12.5,9.6c-13.5,6.1-29.6,7-40.6,16.8
		c-8.4,7.5-12.3,19.8-9.7,30.8c1.7,7,5.7,13.4,6.7,20.6c0.9,6.1-8.6,15.5-15.8,18.3c-116.6-42-208.9-134.9-250-251.9l0.3-0.1
		c31.1,5,64.1-3.1,89.3-22c11.4-8.5,21.3-19,33.7-26c13-7.2,28.1-10,42.9-10.2c14.8-0.1,30.3,2.7,41.7,12.1
		c13.6,11.2,18.9,29.6,21.4,47.1c1.5,10.1,2.3,20.6,7,29.7c7.6,14.7,23.4,22.8,36.8,32.5C448,1005.6,464.6,1026.3,474.9,1049.9z"/>
</g>
<path class="st2" d="M389.1,1166.2c43.7,15.7,90.8,24.3,139.9,24.3c17.4,0,34.5-1.1,51.4-3.2c112.5-14,211-73.2,276.7-158.8
	c48.6-63.4,79.3-141.4,84.3-226.2c0.8-13.5-10-24.9-23.5-24.9H638.3H459.2H140.1c-13.5,0-24.3,11.4-23.5,24.9
	c2.3,39.1,10.1,76.6,22.5,112C180.2,1031.3,272.5,1124.2,389.1,1166.2z"/>
<path class="st3" d="M139.4,914.1c31.1,5,64.1-3.1,89.3-22c11.4-8.5,21.3-19,33.7-26c13-7.2,28.1-10,42.9-10.2
	c14.8-0.1,30.3,2.7,41.7,12.1c13.6,11.2,18.9,29.6,21.4,47.1c1.5,10.1,2.3,20.6,7,29.7c7.6,14.7,23.4,22.8,36.8,32.5
	c20.8,15,37.5,35.8,47.7,59.3c4.6,10.6,7.7,23.7,1.2,33.3c-3,4.4-7.6,7.4-12.5,9.6c-13.5,6.1-29.6,7-40.6,16.8
	c-8.4,7.5-12.3,19.8-9.7,30.8c1.7,7,5.7,13.4,6.7,20.6c0.9,6.1-8.6,15.5-15.8,18.3"/>
<path class="st3" d="M580.4,1187.3c16.1-16.5,30.7-40.9,27.5-63.3c-2.2-15.2-11.3-28.4-21.3-40c-10-11.6-21.2-22.4-28.8-35.7
	c-7.6-13.3-11.2-30.1-4.8-44c5.2-11.2,16.1-19,27.7-23c11.7-4.1,24.1-5,36.5-5.8c16.4-1.2,32.9-2.4,48.5-7.7
	c15.5-5.4,30.1-15.4,37.4-30.1c6.2-12.4,6.7-27,12.7-39.5c6.8-14,20.2-24,34.9-28.9c14.7-4.9,30.7-5.1,46.1-3
	c5.9,0.8,12.2,2.2,16.2,6.6c2.7,3,4,7,4.6,10.9c2.5,16-4.7,32-13.7,45.5c-9,13.5-20.2,25.6-27.2,40.2c-1.9,3.9-3.5,8.2-3.5,12.5
	c0.2,12.2,13.4,20.3,25.5,21.8c12.1,1.5,24.6-1.2,36.6,1.1c11.6,2.3,23.4,12.2,21.9,23.7"/>
<path class="st3" d="M839.3,942.5c-2.9-5,2.2-16,7.2-18.9c5-2.9,11-3.5,16.5-5.3c4.8-1.6,9.2-4.2,12.9-7.7c3.6-3.3,7.8-7.8,12.5-6.4
	c4.4,1.3,5.7,7.5,3.5,11.5c-2.2,4-6.6,6.3-10.8,8c-4.2,1.7-8.8,3.2-12.1,6.3c-2.9,2.8-4.6,6.7-7.3,9.8c-3.8,4.3-9.8,6.5-15.5,5.9
	C843.7,945.4,841,944.5,839.3,942.5z"/>
<path class="st3" d="M459.2,777.2c0,0,0,0.1,0,0.1c-2.5,8.6-10.3,14.4-16.9,20.4c-6.7,6.1-13,14.6-10.8,23.3
	c2.3,9.4,12.9,13.8,22.2,16.2c9.6,2.5,19.4,4.2,29.2,5.3c9.4,1,19.6,1.8,26.7,8.1c6.3,5.7,8.5,14.6,13.8,21.1
	c9.7,12.1,27.1,13.9,42.6,14.1c9,0.2,18.3,0,26.5-3.8c8.1-3.8,14.7-12.5,13.3-21.4c-2-12.2-17.6-21.6-13.4-33.2
	c2-5.6,8.1-8.6,13.7-10.9c8.8-3.5,18-6.7,25.1-13c6.3-5.6,9.3-17.7,7.3-26.4"/>
<g>
	<path class="st4" d="M335.4,368.1h-66v-27.2h160.4v27.2H365v377.2h-29.7V368.1z"/>
	<path class="st4" d="M735,563.7c0-77.5,1.8-153.8,3-195h-0.6c-10.9,66.6-47.8,254.3-72.1,376.6h-30.3
		c-18.8-103.5-57.5-305.8-67.2-376.6h-1.2c1.2,46.6,3.6,138.7,3.6,207.7v168.9h-29.1V340.8h43.6c26.6,131.4,60.5,302.1,66,350h0.6
		c6.1-45.4,43.6-227.1,69.6-350h43.6v404.5H735V563.7z"/>
</g>
<g>
	<defs>
		<path id="SVGID_1_" d="M917.5,267l-173-92.5v-73c0-8.4-6.8-15.2-15.2-15.2h-29.5c-8.4,0-15.2,6.8-15.2,15.2v40.9L553.4,72.3
			c-8.4-4.5-18.4-4.5-26.7,0L162.5,267c-7.1,3.8-4.4,14.5,3.6,14.5h747.7C921.9,281.5,924.5,270.8,917.5,267z"/>
	</defs>
	<clipPath id="SVGID_00000101815985247390962380000017391708160269560726_">
		<use xlink:href="#SVGID_1_"  style="overflow:visible;"/>
	</clipPath>
	<g style="clip-path:url(#SVGID_00000101815985247390962380000017391708160269560726_);">
		<path class="st0" d="M118.1,442.1c-15.2,0-27.3-12.8-26.4-28c5.7-95.3,40.1-182.9,94.7-254.2c-1.8,13,11.5,24.1,24.6,26.7
			c13.5,2.6,27.4-0.4,41.1,1.3s28.4,10.7,28.7,24.4c0.1,4.9-1.7,9.7-3.9,14.1c-7.9,16.4-20.4,30-30.6,45.2
			c-10.2,15.1-18.2,33.1-15.4,51.1c0.7,4.4,2.1,8.9,5.1,12.3c4.5,5,11.6,6.5,18.2,7.4c17.3,2.3,35.2,2.1,51.7-3.4
			c16.5-5.5,31.6-16.8,39.2-32.5c6.8-14,7.4-30.4,14.3-44.4c8.2-16.5,24.5-27.8,42-33.8c17.4-6,36.1-7.4,54.4-8.7
			c13.8-1,27.9-2,41-6.6c13.1-4.6,25.4-13.3,31.2-25.9c7.2-15.6,3.2-34.5-5.4-49.4c-8.5-14.9-21.1-27.1-32.3-40.1
			s-21.5-27.9-23.9-44.9c-3.6-25.2,12.9-52.6,30.9-71.1c18.9-2.3,38.2-3.5,57.7-3.5c55.2,0,108.1,9.6,157.1,27.3
			c-8.2,3.2-18.7,13.7-17.8,20.6c1.1,8.1,5.7,15.2,7.6,23.1c2.9,12.4-1.4,26.2-10.9,34.6c-12.4,11-30.5,12-45.7,18.8
			c-5.4,2.5-10.7,5.8-14,10.8c-7.3,10.8-3.8,25.4,1.4,37.4c11.5,26.5,30.2,49.7,53.6,66.6c15.1,10.9,32.8,20,41.3,36.6
			c5.2,10.2,6.2,22,7.9,33.4c2.8,19.6,8.7,40.3,24.1,52.9c12.8,10.5,30.3,13.7,46.9,13.6c16.7-0.1,33.7-3.3,48.2-11.4
			c13.9-7.8,25-19.6,37.8-29.2c28.3-21.1,65.4-30.2,100.3-24.7l0.3-0.1c14,39.7,22.7,82,25.3,125.8c0.9,15.2-11.2,28-26.4,28H633.4
			c2.8-9.7,11.6-16.1,19-22.9c7.5-6.8,14.6-16.4,12.2-26.2c-2.6-10.5-14.5-15.5-25-18.2c-10.8-2.8-21.8-4.8-32.8-6
			c-10.6-1.2-22.1-2-30-9.1c-7.1-6.4-9.5-16.4-15.5-23.7c-10.9-13.6-30.5-15.6-47.9-15.9c-10.1-0.2-20.6,0-29.7,4.3
			c-9.1,4.3-16.5,14-14.9,24c2.2,13.7,19.8,24.3,15.1,37.3c-2.3,6.3-9.1,9.7-15.4,12.2c-9.9,3.9-20.2,7.5-28.2,14.6
			c-7.1,6.3-10.4,19.8-8.2,29.6H118.1z M147.2,286.6c-2.4,4.5-1,11.4,4,12.9c5.3,1.6,10-3.4,14-7.2c4.2-3.8,9.2-6.8,14.5-8.6
			c6.2-2.1,12.9-2.7,18.6-6c5.6-3.3,11.4-15.6,8.1-21.2c-1.9-2.3-4.9-3.4-7.8-3.7c-6.4-0.7-13.1,1.8-17.4,6.6
			c-3.1,3.4-4.9,7.8-8.2,11c-3.7,3.6-8.8,5.2-13.6,7.1C154.5,279.5,149.6,282.1,147.2,286.6z"/>
		<path class="st1" d="M151.1,299.6c-4.9-1.5-6.4-8.4-4-12.9c2.4-4.5,7.4-7.1,12.2-9c4.8-1.9,9.9-3.6,13.6-7.1
			c3.3-3.2,5.2-7.6,8.2-11c4.3-4.8,11-7.3,17.4-6.6c2.9,0.3,5.9,1.4,7.8,3.7c3.3,5.6-2.5,18-8.1,21.2c-5.6,3.3-12.4,3.9-18.6,6
			c-5.4,1.8-10.4,4.8-14.5,8.6C161.1,296.1,156.4,301.1,151.1,299.6z"/>
		<path class="st1" d="M211,186.6c-13.1-2.6-26.3-13.7-24.6-26.7C260.2,63.7,370.9-2.8,497.3-18.5C479.2,0,462.8,27.4,466.4,52.6
			c2.4,17,12.7,31.9,23.9,44.9s23.8,25.2,32.3,40.1c8.5,14.9,12.6,33.8,5.4,49.4c-5.8,12.6-18.1,21.3-31.2,25.9
			c-13.1,4.6-27.1,5.6-41,6.6c-18.4,1.3-37,2.7-54.4,8.7c-17.4,6-33.8,17.3-42,33.8c-6.9,14-7.5,30.4-14.3,44.4
			c-7.6,15.7-22.7,27-39.2,32.5c-16.5,5.5-34.5,5.7-51.7,3.4c-6.6-0.9-13.7-2.4-18.2-7.4c-3-3.3-4.4-7.8-5.1-12.3
			c-2.8-18,5.3-35.9,15.4-51.1c10.2-15.1,22.7-28.8,30.6-45.2c2.1-4.4,4-9.2,3.9-14.1c-0.3-13.7-15.1-22.8-28.7-24.4
			S224.5,189.2,211,186.6z"/>
		<path class="st1" d="M432.2,442.1c-2.3-9.8,1-23.3,8.2-29.6c8-7,18.3-10.6,28.2-14.6c6.3-2.5,13.1-5.9,15.4-12.2
			c4.7-13.1-12.9-23.6-15.1-37.3c-1.6-10,5.8-19.7,14.9-24c9.1-4.3,19.6-4.4,29.7-4.3c17.4,0.3,37,2.3,47.9,15.9
			c5.9,7.4,8.4,17.4,15.5,23.7c7.9,7.1,19.4,7.9,30,9.1c11.1,1.2,22,3.2,32.8,6c10.5,2.7,22.4,7.7,25,18.2
			c2.4,9.8-4.7,19.4-12.2,26.2c-7.5,6.8-16.2,13.3-19,22.9H432.2z"/>
		<path class="st1" d="M632.7,150.5c-5.2-11.9-8.7-26.6-1.4-37.4c3.3-4.9,8.6-8.3,14-10.8c15.1-6.8,33.3-7.8,45.7-18.8
			c9.5-8.4,13.9-22.2,10.9-34.6c-1.9-7.9-6.4-15.1-7.6-23.1c-1-6.9,9.6-17.4,17.8-20.6c131,47.1,234.7,151.5,280.9,283l-0.3,0.1
			c-34.9-5.6-72,3.5-100.3,24.7c-12.8,9.5-23.9,21.4-37.8,29.2c-14.6,8.1-31.5,11.3-48.2,11.4c-16.6,0.1-34.1-3-46.9-13.6
			c-15.3-12.6-21.2-33.3-24.1-52.9c-1.6-11.4-2.6-23.1-7.9-33.4c-8.5-16.5-26.2-25.7-41.3-36.6C662.9,200.3,644.1,177,632.7,150.5z"
			/>
	</g>
</g>
<path class="st2" d="M906.5,252l-173-92.5v-73c0-8.4-6.8-15.2-15.2-15.2h-29.5c-8.4,0-15.2,6.8-15.2,15.2v40.9L542.4,57.3
	c-8.4-4.5-18.4-4.5-26.7,0L151.5,252c-7.1,3.8-4.4,14.5,3.6,14.5h747.7C910.9,266.5,913.5,255.8,906.5,252z"/>
</svg>
