<?xml version="1.0" encoding="UTF-8"?>
<svg xmlns="http://www.w3.org/2000/svg" viewBox="0 0 484 362">
  <defs>
    <style>
      .cls-1 {
        isolation: isolate;
      }

      .cls-2 {
        mix-blend-mode: multiply;
      }

      .cls-2, .cls-3 {
        fill: #8cb347;
      }

      .cls-4 {
        fill: #29abe2;
      }

      .cls-5 {
        fill: #603e2a;
      }
    </style>
  </defs>
  <g class="cls-1">
    <g id="Layer_1" data-name="Layer 1">
      <g id="Grass">
        <rect id="Grass-2" data-name="Grass" class="cls-3" y="253" width="484" height="109"/>
      </g>
      <g id="Sky">
        <rect class="cls-4" width="484" height="253"/>
      </g>
      <g id="Tres2">
        <g>
          <path class="cls-3" d="M133.23,155.36c-.09-.13-.18-.25-.27-.37,2.51-6.81,3.59-14.15,3.03-21.45-.81-10.51-4.98-20.57-11.69-28.61,3.35-6.77,4.9-14.41,4.31-22.01-.83-10.89-6.01-21.2-14.2-28.41-3.02-2.03-6.05-4.06-9.07-6.09-6.95-3.39-14.28-4.82-21.99-4.27-3.56,.75-7.13,1.5-10.69,2.25-6.93,2.47-12.84,6.45-17.72,11.95-7.45,8.46-11.23,19.81-10.36,31.06,.37,4.8,1.58,9.48,3.52,13.84-.23,.25-.48,.49-.71,.75-8.96,10.18-13.5,23.83-12.46,37.35,.36,4.69,1.4,9.28,3.02,13.65-1.51,2.2-2.88,4.51-4.1,6.96-.5,1.03-.97,2.07-1.41,3.11-3.99,8.26-6.18,20.46-5.18,29.21,.82,10.03,4.03,19.23,9.63,27.59,8.45,12.52,21.68,21.29,36.52,24.17,14.84,2.88,30.39-.28,42.91-8.73,4.53-3.05,8.57-6.75,12.02-10.92,.02-.02,.05-.04,.07-.07,6.67-6.48,11.91-18.86,13.6-27.73,.3-5.14,.6-10.29,.9-15.43-.82-10.1-4.06-19.36-9.69-27.78Z"/>
          <path class="cls-2" d="M48.42,196.69c0-9.55,2.7-18.56,7.35-26.31-2.74-6.3-4.27-13.2-4.27-20.42,0-16,7.51-30.51,19.14-40.15-2.7-6.25-4.21-13.1-4.21-20.25,0-19.08,10.71-36.02,26.34-45.09-3.07-.45-6.2-.57-9.4-.34-3.56,.75-7.13,1.5-10.69,2.25-6.93,2.47-12.84,6.45-17.72,11.95-7.45,8.46-11.23,19.81-10.36,31.06,.37,4.8,1.58,9.48,3.52,13.84-.23,.25-.48,.49-.71,.75-8.96,10.18-13.5,23.83-12.46,37.35,.36,4.69,1.4,9.28,3.02,13.65-1.51,2.2-2.88,4.51-4.1,6.96-.5,1.03-.97,2.07-1.41,3.11-3.99,8.26-6.18,20.46-5.18,29.21,.82,10.03,4.03,19.23,9.63,27.59,8.45,12.52,21.68,21.29,36.52,24.17,4.73,.92,9.52,1.22,14.27,.93-22.35-5.75-39.26-26.33-39.26-50.26Z"/>
        </g>
        <g>
          <polygon class="cls-5" points="73 267 83 167 87 167 97 267 73 267 73 267"/>
          <g>
            <line class="cls-3" x1="86.58" y1="201.47" x2="102.3" y2="185.75"/>
            <polygon class="cls-5" points="83.05 197.93 101.71 185.16 102.89 186.34 90.12 205 83.05 197.93 83.05 197.93"/>
          </g>
          <g>
            <line class="cls-3" x1="86.58" y1="223.47" x2="70.86" y2="207.75"/>
            <polygon class="cls-5" points="83.05 227 70.27 208.34 71.45 207.16 90.12 219.93 83.05 227 83.05 227"/>
          </g>
        </g>
      </g>
      <g id="Tree1">
        <g>
          <path class="cls-3" d="M456.47,167.87c-.08-.11-.16-.22-.23-.33,2.21-6.05,3.16-12.56,2.67-19.05-.71-9.33-4.38-18.26-10.28-25.41,2.95-6.01,4.31-12.8,3.8-19.55-.73-9.67-5.29-18.82-12.5-25.23-2.66-1.8-5.32-3.6-7.98-5.41-6.11-3.01-12.56-4.28-19.35-3.8-3.13,.67-6.27,1.33-9.41,2-6.1,2.19-11.29,5.73-15.59,10.61-6.56,7.52-9.88,17.59-9.12,27.58,.32,4.26,1.39,8.42,3.1,12.29-.21,.22-.42,.44-.62,.67-7.89,9.04-11.88,21.16-10.97,33.17,.32,4.16,1.23,8.24,2.66,12.12-1.32,1.95-2.53,4.01-3.61,6.18-.44,.91-.85,1.84-1.24,2.76-3.51,7.34-5.44,18.17-4.56,25.94,.72,8.91,3.54,17.08,8.47,24.5,7.43,11.12,19.08,18.9,32.13,21.46,13.05,2.56,26.74-.25,37.76-7.75,3.98-2.71,7.54-5.99,10.58-9.7l.06-.06c5.86-5.75,10.48-16.74,11.97-24.63,.26-4.57,.53-9.13,.79-13.7-.73-8.97-3.57-17.19-8.53-24.67Z"/>
          <path class="cls-2" d="M381.85,204.57c0-8.48,2.37-16.48,6.47-23.36-2.41-5.59-3.76-11.72-3.76-18.13,0-14.21,6.6-27.09,16.84-35.65-2.38-5.55-3.7-11.63-3.7-17.98,0-16.94,9.42-31.99,23.17-40.04-2.7-.4-5.46-.51-8.27-.31-3.13,.67-6.27,1.33-9.41,2-6.1,2.19-11.29,5.73-15.59,10.61-6.56,7.52-9.88,17.59-9.12,27.58,.32,4.26,1.39,8.42,3.1,12.29-.21,.22-.42,.44-.62,.67-7.89,9.04-11.88,21.16-10.97,33.17,.32,4.16,1.23,8.24,2.66,12.12-1.32,1.95-2.53,4.01-3.61,6.18-.44,.91-.85,1.84-1.24,2.76-3.51,7.34-5.44,18.17-4.56,25.94,.72,8.91,3.54,17.08,8.47,24.5,7.43,11.12,19.08,18.9,32.13,21.46,4.16,.82,8.38,1.08,12.56,.83-19.66-5.1-34.54-23.38-34.54-44.63Z"/>
        </g>
        <g>
          <polygon class="cls-5" points="402.03 267 412.03 178.2 416.03 178.2 426.03 267 402.03 267 402.03 267"/>
          <g>
            <line class="cls-3" x1="415.42" y1="208.81" x2="429.26" y2="194.85"/>
            <polygon class="cls-5" points="411.87 205.29 428.66 194.26 429.85 195.44 418.98 212.33 411.87 205.29 411.87 205.29"/>
          </g>
          <g>
            <line class="cls-3" x1="415.42" y1="228.34" x2="401.59" y2="214.38"/>
            <polygon class="cls-5" points="411.87 231.86 401 214.97 402.19 213.8 418.98 224.82 411.87 231.86 411.87 231.86"/>
          </g>
        </g>
      </g>
    </g>
  </g>
</svg>