<?xml version="1.0" encoding="utf-8"?>
<!-- Generator: Adobe Illustrator 26.2.1, SVG Export Plug-In . SVG Version: 6.00 Build 0)  -->
<svg version="1.1" id="House" xmlns="http://www.w3.org/2000/svg" xmlns:xlink="http://www.w3.org/1999/xlink" x="0px" y="0px"
	 viewBox="0 0 1366 768" style="enable-background:new 0 0 1366 768;" xml:space="preserve">
<style type="text/css">
	.metal_x002D_body{fill:#CCCCCC;}
	.metal_x002D_shadow{fill:#B3B3B3;}
	.metal_x002D_details{fill:#4C5155;}
	.oven_x002D_door_x002D_rack{fill:#6A6F73;}
	.oven_x002D_cavity{fill:#4D5256;}
	.oven_x002D_door_x002D_body{fill:#3A4245;}
	.st0{fill:#C69C6D;}
	.st1{fill:#F7E0C6;}
	.st2{fill:#A67C52;}
	.st3{fill:#A9C4E5;}
	.st4{fill:#157D78;}
	.st5{fill:#51424E;}
	.st6{opacity:0.3;}
	.st7{fill:#FFFAFC;}
	.st8{fill:#FF3B20;}
	.st9{fill:#B3B3B3;}
	.st10{fill:#4D5256;}
	.st11{fill:#CCCACD;}
	.st12{fill:#FC8912;}
	.st13{fill:#7B2719;}
	.st14{fill:#FFBB1F;}
	.st15{fill:#FFFFFF;}
	.st16{fill:#3A4245;}
	.st17{opacity:0.2;fill:#FFFFFF;}
	.st18{fill:#1F2426;}
	.st19{fill:#898989;}
	.st20{fill:#9E1300;}
	.st21{fill:#FF3912;}
	.st22{fill:#B5B5B5;}
	.st23{fill:none;stroke:#754C24;stroke-width:10;stroke-miterlimit:10;}
	.st24{fill:none;stroke:#FBB03B;stroke-width:10;stroke-miterlimit:10;}
	.st25{fill:none;stroke:#F15A24;stroke-width:10;stroke-miterlimit:10;}
	.st26{fill:none;stroke:#F15A24;stroke-width:10;stroke-miterlimit:10;stroke-dasharray:9.951,0.9951;}
	.st27{fill:none;stroke:#F15A24;stroke-width:10;stroke-miterlimit:10;stroke-dasharray:10.0442,1.0044;}
	.st28{fill:none;stroke:#8C6239;stroke-width:14;stroke-linecap:round;stroke-miterlimit:10;}
	.st29{opacity:0.5;fill:#4D4D4D;}
	.st30{fill:#828282;}
	.st31{fill:#787878;}
	.st32{fill:#BB2500;}
	.st33{fill:#AE1E00;}
	.st34{fill:#D73400;}
	.st35{fill:#F23C00;}
	.st36{fill:#9F1C14;}
	.st37{fill:#711400;}
	.st38{fill:#C92A00;}
	.st39{fill:#DE1B00;}
</style>
<g id="backgrounds">
	<polyline id="loft" class="st0" points="475,233.8 724.2,66.2 967,233.8 475,233.8 	"/>
	<rect id="rooms" x="489" y="237" class="st1" width="464" height="404"/>
	<rect id="floor1_00000008122331312040589750000014620626600677164207_" x="488" y="595" class="st2" width="461" height="46"/>
	<rect id="floor2" x="489" y="378" class="st2" width="461" height="46"/>
</g>
<g id="kitchen">
	<g id="utensils">
		<g>
			<path class="st3" d="M786.2,480.4c0,0.6,0.5,1.2,1.2,1.2h53.9c0.6,0,1.2-0.5,1.2-1.2c0-0.6-0.5-1.2-1.2-1.2h-53.9
				C786.7,479.3,786.2,479.8,786.2,480.4z"/>
		</g>
		<g>
			<g>
				<rect x="792" y="482.5" class="st4" width="1.2" height="16.9"/>
			</g>
			<g>
				<path class="st5" d="M783,499.6c0,2.8,2.3,5.1,5.1,5.1c2.8,0,5.1-2.3,5.1-5.1c0-0.1,0-0.1,0-0.2h-10.2
					C783,499.5,783,499.6,783,499.6z"/>
			</g>
			<g>
				<path class="st5" d="M784.5,499.5h-1.4c0,0.1,0,0.1,0,0.2c0,2.8,2.3,5.1,5.1,5.1c1.5,0,2.9-0.7,3.8-1.7c-0.6,0.2-1.3,0.4-2,0.4
					C787.4,503.3,785.3,501.7,784.5,499.5z"/>
			</g>
			<g>
				<path class="st5" d="M791.4,478.2v5.5c0,0.7,0.6,1.2,1.2,1.2c0.7,0,1.2-0.6,1.2-1.2v-5.5c0-0.7-0.6-1.2-1.2-1.2
					C791.9,477,791.4,477.5,791.4,478.2z"/>
			</g>
		</g>
		<g>
			<g>
				<rect x="797.5" y="482.5" class="st4" width="1.2" height="16.9"/>
			</g>
			<g>
				<path class="st5" d="M796.9,478.2v5.5c0,0.7,0.6,1.2,1.2,1.2s1.2-0.6,1.2-1.2v-5.5c0-0.7-0.6-1.2-1.2-1.2
					S796.9,477.5,796.9,478.2z"/>
			</g>
			<g>
				<path class="st5" d="M795.1,502.2c0,2.5,1.4,4.5,3.1,4.5c1.7,0,3.1-2,3.1-4.5c0-2.5-1.4-4.5-3.1-4.5
					C796.5,497.8,795.1,499.8,795.1,502.2z"/>
			</g>
			<g class="st6">
				<g>
					<path class="st7" d="M796.9,505.4l2.9-6.1c-0.3-0.4-0.7-0.6-1.1-0.7l-2.6,5.5C796.2,504.6,796.5,505.1,796.9,505.4z"/>
				</g>
				<g>
					<path class="st7" d="M798.2,505.9C798.2,505.9,798.2,505.9,798.2,505.9l2.4-5c-0.1-0.3-0.2-0.6-0.3-0.9l-2.7,5.7
						C797.7,505.9,798,505.9,798.2,505.9z"/>
				</g>
			</g>
		</g>
		<g>
			<g>
				<rect x="819.3" y="482.5" class="st4" width="1.2" height="13.9"/>
			</g>
			<g>
				<path class="st5" d="M821.2,483.7v-5.5c0-0.7-0.6-1.2-1.2-1.2c-0.7,0-1.2,0.6-1.2,1.2v5.5c0,0.7,0.6,1.2,1.2,1.2
					C820.6,485,821.2,484.4,821.2,483.7z"/>
			</g>
			<g>
				<path class="st5" d="M825.5,501.8c0-3.1-2.5-5.6-5.6-5.6c-3.1,0-5.6,2.5-5.6,5.6c0,3.1,2.5,5.6,5.6,5.6
					C823,507.4,825.5,504.9,825.5,501.8z M822.8,500.3c0.3,0,0.6,0.3,0.6,0.6c0,0.3-0.3,0.6-0.6,0.6s-0.6-0.3-0.6-0.6
					C822.2,500.5,822.5,500.3,822.8,500.3z M822.8,502.2c0.3,0,0.6,0.3,0.6,0.6c0,0.3-0.3,0.6-0.6,0.6s-0.6-0.3-0.6-0.6
					C822.2,502.4,822.5,502.2,822.8,502.2z M820.9,498.3c0.3,0,0.6,0.3,0.6,0.6c0,0.3-0.3,0.6-0.6,0.6c-0.3,0-0.6-0.3-0.6-0.6
					C820.3,498.6,820.6,498.3,820.9,498.3z M820.9,500.3c0.3,0,0.6,0.3,0.6,0.6c0,0.3-0.3,0.6-0.6,0.6c-0.3,0-0.6-0.3-0.6-0.6
					C820.3,500.5,820.6,500.3,820.9,500.3z M820.9,502.2c0.3,0,0.6,0.3,0.6,0.6c0,0.3-0.3,0.6-0.6,0.6c-0.3,0-0.6-0.3-0.6-0.6
					C820.3,502.4,820.6,502.2,820.9,502.2z M820.9,504.1c0.3,0,0.6,0.3,0.6,0.6c0,0.3-0.3,0.6-0.6,0.6c-0.3,0-0.6-0.3-0.6-0.6
					C820.3,504.4,820.6,504.1,820.9,504.1z M817,503.3c-0.3,0-0.6-0.3-0.6-0.6c0-0.3,0.3-0.6,0.6-0.6c0.3,0,0.6,0.3,0.6,0.6
					C817.6,503.1,817.4,503.3,817,503.3z M817,501.4c-0.3,0-0.6-0.3-0.6-0.6c0-0.3,0.3-0.6,0.6-0.6c0.3,0,0.6,0.3,0.6,0.6
					C817.6,501.2,817.4,501.4,817,501.4z M819,505.3c-0.3,0-0.6-0.3-0.6-0.6c0-0.3,0.3-0.6,0.6-0.6c0.3,0,0.6,0.3,0.6,0.6
					C819.5,505,819.3,505.3,819,505.3z M819,503.3c-0.3,0-0.6-0.3-0.6-0.6c0-0.3,0.3-0.6,0.6-0.6c0.3,0,0.6,0.3,0.6,0.6
					C819.5,503.1,819.3,503.3,819,503.3z M819,501.4c-0.3,0-0.6-0.3-0.6-0.6c0-0.3,0.3-0.6,0.6-0.6c0.3,0,0.6,0.3,0.6,0.6
					C819.5,501.2,819.3,501.4,819,501.4z M819,499.5c-0.3,0-0.6-0.3-0.6-0.6c0-0.3,0.3-0.6,0.6-0.6c0.3,0,0.6,0.3,0.6,0.6
					C819.5,499.2,819.3,499.5,819,499.5z"/>
			</g>
		</g>
		<g>
			<g>
				<rect x="806.4" y="482.5" class="st4" width="1.2" height="14.4"/>
			</g>
			<g>
				<path class="st5" d="M805.8,478.2v5.5c0,0.7,0.6,1.2,1.2,1.2c0.7,0,1.2-0.6,1.2-1.2v-5.5c0-0.7-0.6-1.2-1.2-1.2
					C806.3,477,805.8,477.5,805.8,478.2z"/>
			</g>
			<g>
				<path class="st5" d="M805.4,496.2c-0.6,0-1.1,0.5-1.1,1.1v5.5c0,0.6,0.5,1.1,1.1,1.1h3.2c0.6,0,1.1-0.5,1.1-1.1v-5.5
					c0-0.6-0.5-1.1-1.1-1.1H805.4z M806.4,502c0,0.2-0.2,0.4-0.4,0.4c-0.2,0-0.4-0.2-0.4-0.4v-3.9c0-0.2,0.2-0.4,0.4-0.4
					c0.2,0,0.4,0.2,0.4,0.4V502z M808.4,502c0,0.2-0.2,0.4-0.4,0.4c-0.2,0-0.4-0.2-0.4-0.4v-3.9c0-0.2,0.2-0.4,0.4-0.4
					c0.2,0,0.4,0.2,0.4,0.4V502z"/>
			</g>
		</g>
		<g>
			<g>
				<path class="st8" d="M841.9,500.6c0.4,1.8,1.3,3.1,2.2,3.1c1.4,0,2.4-2.7,2.9-6.4c0.2-1.3,0.6-7.8,0.6-7.8l-11.2-6.4
					c0,0-4,4.4-7.2,10c-3.7,6.5-2.4,10.9,1.2,12.9C833.9,508,839,505.6,841.9,500.6z"/>
			</g>
			<g>
				<path class="st8" d="M837.4,479.1c0.1,0,0.2,0.1,0.3,0.2h1.5c-0.4-0.9-1.1-1.5-1.9-1.5c-1.3,0-2.2,1.5-2.2,3.6
					c0,2,1,3.6,2.2,3.6c1.2,0,2.1-1.4,2.2-3.3h-1.3c-0.1,1.2-0.6,1.9-0.9,1.9c-0.3,0-0.9-0.8-0.9-2.2
					C836.5,479.9,837.1,479.1,837.4,479.1z"/>
			</g>
			<g>
				<path class="st7" d="M830.9,502.2c0-0.5-0.4-0.8-0.8-0.8c-0.5,0-0.8,0.4-0.8,0.8c0,0.5,0.4,0.8,0.8,0.8
					C830.5,503,830.9,502.6,830.9,502.2z"/>
			</g>
			<g>
				<path class="st7" d="M835.6,503.3c0-0.5-0.4-0.8-0.8-0.8s-0.8,0.4-0.8,0.8c0,0.5,0.4,0.8,0.8,0.8S835.6,503.8,835.6,503.3z"/>
			</g>
			<g>
				<path class="st7" d="M833.3,498.7c0-0.5-0.4-0.8-0.8-0.8c-0.5,0-0.8,0.4-0.8,0.8c0,0.5,0.4,0.8,0.8,0.8
					C832.9,499.5,833.3,499.2,833.3,498.7z"/>
			</g>
			<g>
				<path class="st7" d="M839,498.6c0-0.5-0.4-0.8-0.8-0.8c-0.5,0-0.8,0.4-0.8,0.8c0,0.5,0.4,0.8,0.8,0.8
					C838.6,499.4,839,499.1,839,498.6z"/>
			</g>
			<g>
				<path class="st7" d="M845.7,497.9c0-0.5-0.4-0.8-0.8-0.8c-0.5,0-0.8,0.4-0.8,0.8c0,0.5,0.4,0.8,0.8,0.8
					C845.3,498.8,845.7,498.4,845.7,497.9z"/>
			</g>
			<g>
				<path class="st7" d="M845.4,493.8c0-0.5-0.4-0.8-0.8-0.8c-0.5,0-0.8,0.4-0.8,0.8c0,0.5,0.4,0.8,0.8,0.8
					C845.1,494.6,845.4,494.2,845.4,493.8z"/>
			</g>
			<g>
				<path class="st7" d="M831.9,494.3c0-0.5-0.4-0.8-0.8-0.8c-0.5,0-0.8,0.4-0.8,0.8c0,0.5,0.4,0.8,0.8,0.8
					C831.6,495.1,831.9,494.7,831.9,494.3z"/>
			</g>
			<g>
				<path class="st7" d="M836.3,494.4c0-0.5-0.4-0.8-0.8-0.8c-0.5,0-0.8,0.4-0.8,0.8c0,0.5,0.4,0.8,0.8,0.8
					C835.9,495.3,836.3,494.9,836.3,494.4z"/>
			</g>
			<g>
				<path class="st7" d="M837.4,486.6c0-0.5-0.4-0.8-0.8-0.8c-0.5,0-0.8,0.4-0.8,0.8c0,0.5,0.4,0.8,0.8,0.8
					C837,487.4,837.4,487,837.4,486.6z"/>
			</g>
			<g>
				<path class="st7" d="M841.5,494.3c0-0.5-0.4-0.8-0.8-0.8c-0.5,0-0.8,0.4-0.8,0.8c0,0.5,0.4,0.8,0.8,0.8
					C841.1,495.1,841.5,494.7,841.5,494.3z"/>
			</g>
			<g>
				<path class="st7" d="M834.8,490.2c0-0.5-0.4-0.8-0.8-0.8c-0.5,0-0.8,0.4-0.8,0.8c0,0.5,0.4,0.8,0.8,0.8
					C834.4,491.1,834.8,490.7,834.8,490.2z"/>
			</g>
			<g>
				<path class="st7" d="M839.2,490.2c0-0.5-0.4-0.8-0.8-0.8c-0.5,0-0.8,0.4-0.8,0.8c0,0.5,0.4,0.8,0.8,0.8
					C838.8,491,839.2,490.7,839.2,490.2z"/>
			</g>
			<g>
				<path class="st7" d="M844.1,489.6c0-0.5-0.4-0.8-0.8-0.8c-0.5,0-0.8,0.4-0.8,0.8c0,0.5,0.4,0.8,0.8,0.8
					C843.7,490.5,844.1,490.1,844.1,489.6z"/>
			</g>
		</g>
	</g>
	<g id="oven">
		<g>
			<g id="hobs_00000150083948901681252280000012013844124446557359_">
				<polygon class="oven_x002D_door_x002D_body" points="790.1,524.6 789.3,526.5 811.5,526.5 810.7,524.6 				"/>
				<polygon class="oven_x002D_door_x002D_body" points="837.2,524.6 816.6,524.6 815.8,526.5 838,526.5 				"/>
			</g>
			<g>
				
					<rect id="oven-body_00000028315961551677409620000007759493114503452040_" x="784" y="526" class="oven_x002D_door_x002D_body" width="61" height="78.3"/>
				<g id="oven-body-shadow_00000083056326170677423610000003511199735117750406_">
					<polygon class="oven_x002D_door_x002D_body" points="784.2,603.6 845,534 845.1,603.6 					"/>
				</g>
			</g>
			<g id="oven-door_00000034803444368674398990000008567127418931762050_">
				<g>
					<path class="oven_x002D_door_x002D_body" d="M836.4,589.7c1.8,0,3.2-1.5,3.2-3.2v-26.9c0-1.8-1.5-3.2-3.2-3.2h-44.2
						c-1.8,0-3.2,1.5-3.2,3.2v26.9c0,1.8,1.5,3.2,3.2,3.2H836.4z"/>
					<path class="oven_x002D_door_x002D_body" d="M836.4,589.7c1.8,0,3.2-1.5,3.2-3.2v-26.9c0-1.8-1.5-3.2-3.2-3.2h-44.2
						c-1.8,0-3.2,1.5-3.2,3.2v26.9c0,1.8,1.5,3.2,3.2,3.2H836.4z"/>
				</g>
				<g>
					<path class="oven_x002D_door_x002D_body" d="M839.7,586.5v-26.9c0-1.8-1.5-3.2-3.2-3.2H832l-24.6,33.4h29
						C838.2,589.7,839.7,588.2,839.7,586.5z"/>
					<path class="oven_x002D_door_x002D_body" d="M839.7,586.5v-26.9c0-1.8-1.5-3.2-3.2-3.2H832l-24.6,33.4h29
						C838.2,589.7,839.7,588.2,839.7,586.5z"/>
				</g>
				<g id="oven-door-handle_00000126318947946297013780000016102040188994429362_">
					<path class="oven_x002D_door_x002D_body" d="M834.2,562.8c0.5,0,0.9-0.4,0.9-0.9v-0.6c0-0.5-0.4-0.9-0.9-0.9H794
						c-0.5,0-0.9,0.4-0.9,0.9v0.6c0,0.5,0.4,0.9,0.9,0.9H834.2z"/>
					<path class="oven_x002D_door_x002D_body" d="M834.2,562.8c0.5,0,0.9-0.4,0.9-0.9v-0.6c0-0.5-0.4-0.9-0.9-0.9H794
						c-0.5,0-0.9,0.4-0.9,0.9v0.6c0,0.5,0.4,0.9,0.9,0.9H834.2z"/>
				</g>
			</g>
			<g id="oven-dials_00000097495565608364352690000018203436140180918934_">
				<path class="oven_x002D_door_x002D_body" d="M833.3,547.6c1.1-0.9,1.3-2.6,0.4-3.8c-0.9-1.1-2.6-1.3-3.8-0.4
					c-1.1,0.9-1.3,2.6-0.4,3.8C830.5,548.4,832.2,548.6,833.3,547.6z"/>
				<path class="oven_x002D_door_x002D_body" d="M819.1,545.6c0-1.5-1.2-2.7-2.7-2.7c-1.5,0-2.7,1.2-2.7,2.7c0,1.5,1.2,2.7,2.7,2.7
					C817.9,548.2,819.1,547,819.1,545.6z"/>
				<path class="oven_x002D_door_x002D_body" d="M826.7,545.6c0-1.5-1.2-2.7-2.7-2.7c-1.5,0-2.7,1.2-2.7,2.7c0,1.5,1.2,2.7,2.7,2.7
					C825.5,548.2,826.7,547,826.7,545.6z"/>
				<path class="oven_x002D_door_x002D_body" d="M811.5,545.6c0-1.5-1.2-2.7-2.7-2.7c-1.5,0-2.7,1.2-2.7,2.7c0,1.5,1.2,2.7,2.7,2.7
					C810.3,548.2,811.5,547,811.5,545.6z"/>
				<circle class="oven_x002D_door_x002D_body" cx="794.3" cy="545.6" r="2.7"/>
			</g>
		</g>
		<g>
			<g id="hobs_00000180359666175449444600000001922681868191550371_">
				<polygon class="metal_x002D_details" points="790.1,524.6 789.3,526.5 811.5,526.5 810.7,524.6 				"/>
				<polygon class="metal_x002D_details" points="837.2,524.6 816.6,524.6 815.8,526.5 838,526.5 				"/>
			</g>
			<g>
				
					<rect id="oven-body_00000102506080314336651470000015395394856445949077_" x="784" y="526" class="metal_x002D_body" width="61" height="78.3"/>
				<g id="oven-body-shadow_00000093881825121741857380000010474778739632000427_">
					<polygon class="st9" points="784.2,603.6 845,534 845.1,603.6 					"/>
				</g>
			</g>
			<g id="oven-door_00000170983913176630033600000002498945455471957420_">
				<g>
					<path class="st10" d="M836.4,589.7c1.8,0,3.2-1.5,3.2-3.2v-26.9c0-1.8-1.5-3.2-3.2-3.2h-44.2c-1.8,0-3.2,1.5-3.2,3.2v26.9
						c0,1.8,1.5,3.2,3.2,3.2H836.4z"/>
				</g>
				<g>
					<path class="oven_x002D_door_x002D_body" d="M839.7,586.5v-26.9c0-1.8-1.5-3.2-3.2-3.2H832l-24.6,33.4h29
						C838.2,589.7,839.7,588.2,839.7,586.5z"/>
				</g>
				<g id="oven-door-handle_00000051361221046207022100000016085816019761552544_">
					<path class="st11" d="M834.2,562.8c0.5,0,0.9-0.4,0.9-0.9v-0.6c0-0.5-0.4-0.9-0.9-0.9H794c-0.5,0-0.9,0.4-0.9,0.9v0.6
						c0,0.5,0.4,0.9,0.9,0.9H834.2z"/>
				</g>
			</g>
			<g id="oven-dials_00000039092712453822026510000016699756255687169955_">
				<path class="metal_x002D_details" d="M833.3,547.6c1.1-0.9,1.3-2.6,0.4-3.8c-0.9-1.1-2.6-1.3-3.8-0.4c-1.1,0.9-1.3,2.6-0.4,3.8
					C830.5,548.4,832.2,548.6,833.3,547.6z"/>
				<path class="metal_x002D_details" d="M819.1,545.6c0-1.5-1.2-2.7-2.7-2.7c-1.5,0-2.7,1.2-2.7,2.7c0,1.5,1.2,2.7,2.7,2.7
					C817.9,548.2,819.1,547,819.1,545.6z"/>
				<path class="metal_x002D_details" d="M826.7,545.6c0-1.5-1.2-2.7-2.7-2.7c-1.5,0-2.7,1.2-2.7,2.7c0,1.5,1.2,2.7,2.7,2.7
					C825.5,548.2,826.7,547,826.7,545.6z"/>
				<path class="metal_x002D_details" d="M811.5,545.6c0-1.5-1.2-2.7-2.7-2.7c-1.5,0-2.7,1.2-2.7,2.7c0,1.5,1.2,2.7,2.7,2.7
					C810.3,548.2,811.5,547,811.5,545.6z"/>
				<circle class="metal_x002D_details" cx="794.3" cy="545.6" r="2.7"/>
			</g>
		</g>
	</g>
	<g id="kitchen-seperators">
		<g>
			<rect x="845.1" y="533.1" class="st12" width="3.5" height="70.5"/>
		</g>
		<g>
			<rect x="779.6" y="533.1" class="st12" width="4.6" height="70.5"/>
		</g>
		<g>
			<rect x="912.1" y="531.9" class="st12" width="1.2" height="71.6"/>
		</g>
	</g>
	<g id="kitchen-base">
		<rect x="780" y="603.6" class="st13" width="160.6" height="4"/>
	</g>
	<g id="kitchen-drawers">
		<g>
			<rect x="913.3" y="533.9" class="st14" width="30.8" height="15.4"/>
		</g>
		<g>
			<rect x="913.3" y="550" class="st14" width="30.8" height="15.4"/>
		</g>
		<g>
			<rect x="913.3" y="566.2" class="st14" width="30.8" height="15.4"/>
		</g>
		<g>
			<rect x="913.3" y="582.4" class="st14" width="30.8" height="21.2"/>
		</g>
		<g>
			<path class="st5" d="M934,539.6c0.5,0,0.9-0.4,0.9-0.9v-0.6c0-0.5-0.4-0.9-0.9-0.9h-10.6c-0.5,0-0.9,0.4-0.9,0.9v0.6
				c0,0.5,0.4,0.9,0.9,0.9H934z"/>
		</g>
		<g>
			<rect x="913.3" y="549.3" class="st12" width="30.8" height="1.2"/>
		</g>
		<g>
			<rect x="913.3" y="565.5" class="st12" width="30.8" height="1.2"/>
		</g>
		<g>
			<rect x="913.3" y="581.6" class="st12" width="30.8" height="1.2"/>
		</g>
		<g>
			<path class="st5" d="M934,555.8c0.5,0,0.9-0.4,0.9-0.9v-0.6c0-0.5-0.4-0.9-0.9-0.9h-10.6c-0.5,0-0.9,0.4-0.9,0.9v0.6
				c0,0.5,0.4,0.9,0.9,0.9H934z"/>
		</g>
		<g>
			<path class="st5" d="M934,572c0.5,0,0.9-0.4,0.9-0.9v-0.6c0-0.5-0.4-0.9-0.9-0.9h-10.6c-0.5,0-0.9,0.4-0.9,0.9v0.6
				c0,0.5,0.4,0.9,0.9,0.9H934z"/>
		</g>
		<g>
			<path class="st5" d="M934,588.2c0.5,0,0.9-0.4,0.9-0.9v-0.6c0-0.5-0.4-0.9-0.9-0.9h-10.6c-0.5,0-0.9,0.4-0.9,0.9v0.6
				c0,0.5,0.4,0.9,0.9,0.9H934z"/>
		</g>
	</g>
	<g id="kitchen-cupboard">
		<g>
			<rect x="880.9" y="531.6" class="st14" width="31.2" height="72"/>
		</g>
		<g>
			<rect x="848.5" y="531.6" class="st14" width="31.2" height="72"/>
		</g>
		<g>
			<path class="st5" d="M875,570.1c0.5,0,0.9-0.4,0.9-0.9v-10.6c0-0.5-0.4-0.9-0.9-0.9h-0.6c-0.5,0-0.9,0.4-0.9,0.9v10.6
				c0,0.5,0.4,0.9,0.9,0.9H875z"/>
		</g>
		<g>
			<path class="st5" d="M886.2,570.1c0.5,0,0.9-0.4,0.9-0.9v-10.6c0-0.5-0.4-0.9-0.9-0.9h-0.6c-0.5,0-0.9,0.4-0.9,0.9v10.6
				c0,0.5,0.4,0.9,0.9,0.9H886.2z"/>
		</g>
		<g>
			<rect x="879.7" y="531.9" class="st12" width="1.2" height="71.6"/>
		</g>
	</g>
	<g id="sink">
		<g id="tap">
			<rect x="859" y="518" class="metal_x002D_details" width="7" height="1"/>
			<path class="metal_x002D_shadow" d="M871.8,507.4v-1.7c0-2.4-1.9-4.3-4.3-4.3h-2.2c-2.4,0-4.3,1.9-4.3,4.3v18.5h2.8v-18.5
				c0-0.9,0.7-1.6,1.6-1.6h2.2c0.9,0,1.6,0.7,1.6,1.6v1.7H871.8z"/>
			<path class="metal_x002D_details" d="M858.2,520.5c1,0,1.7-0.8,1.7-1.7c0-1-0.8-1.7-1.7-1.7h-0.3c-1,0-1.7,0.8-1.7,1.7
				c0,1,0.8,1.7,1.7,1.7H858.2z"/>
			<path class="metal_x002D_details" d="M866.8,520.5c1,0,1.7-0.8,1.7-1.7c0-1-0.8-1.7-1.7-1.7h-0.3c-1,0-1.7,0.8-1.7,1.7
				c0,1,0.8,1.7,1.7,1.7H866.8z"/>
		</g>
		<path class="metal_x002D_body" d="M851,521.4c-2,0-2.4,0.2-2.4,1.6v5.5c0,1.6,1.3,2.9,2.9,2.9h2h42.5h2c1.6,0,2.9-1.3,2.9-2.9V523
			c0-1.4-0.4-1.6-2.4-1.6c-0.8,0-0.7,0.8-0.7,0.9c0,0.9-0.8,0.8-2.1,0.8h-3h-36h-3c-1.3,0-2.1,0.1-2.1-0.8
			C851.7,521.9,851.7,521.4,851,521.4z"/>
		<path class="metal_x002D_shadow" d="M898.7,531.3c1.3-0.3,2.3-1.5,2.3-2.9v-3.4h-52.4v3.4c0,1.4,1,2.6,2.3,2.9H898.7z"/>
	</g>
	<g id="kitchen-counter">
		<rect x="779" y="528" class="st8" width="166.8" height="6"/>
	</g>
	<g id="extractor">
		<rect x="803.7" y="428.6" class="metal_x002D_body" width="21.2" height="36"/>
		<rect x="783.5" y="463.5" class="metal_x002D_details" width="61.6" height="7.9"/>
		<polygon class="metal_x002D_shadow" points="824.8,449.8 803.6,449.8 783.5,463.5 845.1,463.5 		"/>
	</g>
	<g id="fridge">
		<path id="fridge-body" class="metal_x002D_body" d="M780,604.4c0,1.8-1.1,3.3-2.4,3.3h-49.3c-1.3,0-2.4-1.5-2.4-3.3V474.3
			c0-1.8,1.1-3.3,2.4-3.3h49.3c1.3,0,2.4,1.5,2.4,3.3V604.4z"/>
		<path id="fridge-shadow" class="metal_x002D_shadow" d="M726,604.4c0,1.8,1.1,3.3,2.4,3.3h49.3c1.3,0,2.4-1.5,2.4-3.3V474.3
			L726,604.4z"/>
		<g id="fridge-details">
			<rect x="726" y="538.8" class="metal_x002D_details" width="54" height="0.4"/>
			<path class="metal_x002D_details" d="M738.7,538.8c0,1.5-0.8,2.7-1.9,2.7h-5.6c-1,0-1.9-1.2-1.9-2.7l0,0c0-1.5,0.8-2.7,1.9-2.7
				h5.6C737.9,536.2,738.7,537.4,738.7,538.8L738.7,538.8z"/>
			<rect x="726" y="600.3" class="metal_x002D_details" width="54" height="0.4"/>
			<rect x="726" y="477.4" class="metal_x002D_details" width="54" height="0.4"/>
		</g>
	</g>
	<g id="microwave">
		<g>
			<path class="st11" d="M903.8,527.9c-0.8,0-1.5-0.7-1.5-1.5v-26.8c0-0.8,0.7-1.5,1.5-1.5h39.7c0.8,0,1.5,0.7,1.5,1.5v26.8
				c0,0.8-0.7,1.5-1.5,1.5H903.8z"/>
			<path class="st15" d="M935.6,525.2c-0.1,0-0.3-0.1-0.3-0.3v-4.7c0-0.1,0.1-0.3,0.3-0.3h6.9c0.1,0,0.3,0.1,0.3,0.3v4.7
				c0,0.1-0.1,0.3-0.3,0.3H935.6z"/>
			<g>
				<path class="st16" d="M933.1,523.5c0,1-0.8,1.8-1.8,1.8h-25.4c-1,0-1.8-0.8-1.8-1.8v-21.1c0-1,0.8-1.8,1.8-1.8h25.4
					c1,0,1.8,0.8,1.8,1.8V523.5z"/>
				<rect x="908.5" y="505.6" class="st10" width="20.3" height="14.4"/>
				<polygon class="st17" points="905.7,524 931.5,524 931.5,501.8 				"/>
			</g>
			<g>
				<path class="st10" d="M942.9,518h-7.5v-17.3h7.5V518z M935.6,517.8h7.2v-17h-7.2V517.8z"/>
			</g>
			<g>
				<path class="st10" d="M939.2,503.6h-3.8v-2.9h3.8V503.6z M935.6,503.4h3.5v-2.6h-3.5V503.4z"/>
			</g>
			<g>
				<path class="st10" d="M942.9,503.6h-3.8v-2.9h3.8V503.6z M939.2,503.4h3.5v-2.6h-3.5V503.4z"/>
			</g>
			<g>
				<path class="st10" d="M939.2,506.3h-3.8v-2.9h3.8V506.3z M935.6,506.2h3.5v-2.6h-3.5V506.2z"/>
			</g>
			<g>
				<path class="st10" d="M942.9,506.3h-3.8v-2.9h3.8V506.3z M939.2,506.2h3.5v-2.6h-3.5V506.2z"/>
			</g>
			<g>
				<path class="st10" d="M939.2,509.1h-3.8v-2.9h3.8V509.1z M935.6,508.9h3.5v-2.6h-3.5V508.9z"/>
			</g>
			<g>
				<path class="st10" d="M942.9,509.1h-3.8v-2.9h3.8V509.1z M939.2,508.9h3.5v-2.6h-3.5V508.9z"/>
			</g>
		</g>
	</g>
	<g id="kettle">
		<g>
			<g>
				<path class="st11" d="M930.5,489.1c0,0,0,0.1,0,0.1l-0.2,0.1c0,0-0.1,0-0.1,0l-0.3-0.7c0,0,0-0.1,0-0.1l0.2-0.1c0,0,0.1,0,0.1,0
					L930.5,489.1z"/>
				<path class="st11" d="M930.5,487.9c0,0,0-0.1,0-0.1l-0.2-0.1c0,0-0.1,0-0.1,0l-0.3,0.7c0,0,0,0.1,0,0.1l0.2,0.1c0,0,0.1,0,0.1,0
					L930.5,487.9z"/>
			</g>
		</g>
		<path class="st15" d="M930.3,489.3c0,0.2-0.2,0.4-0.4,0.4l0,0c-0.2,0-0.4-0.2-0.4-0.4v-1.6c0-0.2,0.2-0.4,0.4-0.4l0,0
			c0.2,0,0.4,0.2,0.4,0.4V489.3z"/>
		<g>
			<path class="st18" d="M912.2,497.5c0,0.3-0.3,0.6-0.6,0.6h-0.7c-0.3,0-0.6-0.3-0.6-0.6l0,0c0-0.3,0.3-0.6,0.6-0.6h0.7
				C911.9,496.9,912.2,497.2,912.2,497.5L912.2,497.5z"/>
			<path class="st18" d="M924.8,497.5c0,0.3-0.3,0.6-0.6,0.6h-0.7c-0.3,0-0.6-0.3-0.6-0.6l0,0c0-0.3,0.3-0.6,0.6-0.6h0.7
				C924.6,496.9,924.8,497.2,924.8,497.5L924.8,497.5z"/>
		</g>
		<path class="st19" d="M908.6,481.4c0,2,1.6,3.6,3.6,3.6s3.6-1.6,3.6-3.6H908.6z"/>
		<path class="st11" d="M910,481.4h-0.5c0,2,1.2,3.6,2.7,3.6c0.1,0,0.2,0,0.3,0C911.1,484.8,910,483.2,910,481.4z"/>
		<path class="st20" d="M924,478.8c-2.8,0.5-4.3,4.6-3.4,9.6c0.1,0.6,0.6,0.9,1.2,0.8c0.6-0.1,0.9-0.6,0.8-1.2
			c-0.7-3.9,0.4-7.1,1.7-7.3c0.6-0.1,1.4,0.4,2.1,1.4l1.7-1.2C926.9,479.4,925.4,478.6,924,478.8z"/>
		<g>
			<g>
				<path class="st21" d="M928.8,492c-0.1,0-0.1,0-0.2,0c-0.6-0.1-0.9-0.6-0.8-1.2c0.3-1.3,0.3-2.9,0-4.5c-0.3-1.9-1-3.7-1.9-4.9
					c-0.7-1-1.5-1.5-2.1-1.4c-1.4,0.2-2.4,3.4-1.7,7.3c0.1,0.6-0.3,1.1-0.8,1.2c-0.6,0.1-1.1-0.3-1.2-0.8c-0.9-5,0.6-9.2,3.4-9.6
					c1.4-0.2,2.9,0.5,4.1,2.2c1.1,1.5,1.9,3.5,2.3,5.8c0.3,1.8,0.3,3.6,0,5.2C929.7,491.6,929.2,492,928.8,492z"/>
			</g>
		</g>
		<path class="st11" d="M917.5,475.8c-4.7,0-8.6,9.4-8.6,21h17.2C926.1,485.2,922.3,475.8,917.5,475.8z"/>
		<path class="st22" d="M921.9,478.8c-0.2-0.4-0.5-0.7-0.7-1c-1.1-1.2-2.4-1.9-3.7-1.9c-1.3,0-2.5,0.7-3.6,1.9
			c-0.3,0.3-0.5,0.6-0.7,1H921.9z"/>
		<path class="st15" d="M919.6,478.8c1.6,4.1,2.7,10.6,2.7,17.9h1.3c0-7.6-1.2-14.3-3-17.9H919.6z"/>
		<path class="st16" d="M908.9,496.4v0.5c0,0.4,0.2,0.6,0.5,0.6h16.1c0.3,0,0.5-0.3,0.5-0.6v-0.5H908.9z"/>
		<path class="st10" d="M921.7,478.2c-1.3-1.6-2.7-2.5-4.2-2.5c-1.5,0-3,0.9-4.2,2.5c-0.1,0.2-0.1,0.3,0.2,0.3h8.1
			C921.8,478.5,921.9,478.4,921.7,478.2z"/>
		<path class="st15" d="M918.2,475.8c0.5,0.7,0.9,1.5,1.4,2.6h1C919.9,477,919.1,476.1,918.2,475.8z"/>
	</g>
</g>
<g id="structure">
	<line id="internal-walls" class="st23" x1="721" y1="641" x2="721" y2="237"/>
	<line id="first-floor" class="st23" x1="489" y1="424" x2="953" y2="424"/>
	<line id="ceiling" class="st23" x1="489" y1="237" x2="953" y2="237"/>
	<polyline id="outline_00000118363719219081733850000010782291016846807734_" class="st24" points="953,225 953,641 489,641 
		489,225 	"/>
	<g id="outline_00000013913381042878839420000009750056628263914906_">
		<g>
			<line class="st25" x1="953" y1="225" x2="953" y2="230"/>
			<line class="st26" x1="953" y1="231" x2="953" y2="635.5"/>
			<polyline class="st25" points="953,636 953,641 948,641 			"/>
			<line class="st27" x1="947" y1="641" x2="494.5" y2="641"/>
			<polyline class="st25" points="494,641 489,641 489,636 			"/>
			<line class="st26" x1="489" y1="635" x2="489" y2="230.5"/>
			<line class="st25" x1="489" y1="230" x2="489" y2="225"/>
		</g>
	</g>
	<polyline id="roof" class="st28" points="973,237 724.3,65 469,237 	"/>
</g>
<g id="livingroom">
	<g id="left-speaker">
		<g id="right-speaker">
			<path class="oven_x002D_door_x002D_body" d="M667.5,601.5h-3.2V531c0-1.8,1.4-3.2,3.2-3.2h8.3c1.8,0,3.2,1.4,3.2,3.2v70.5h-3.2
				H667.5z"/>
			<rect x="665.7" y="531" class="oven_x002D_door_x002D_rack" width="11.8" height="66.5"/>
			<polygon class="oven_x002D_cavity" points="665.7,597.5 677.6,597.5 677.6,531 			"/>
		</g>
		<path class="oven_x002D_door_x002D_body" d="M531.4,601.5h-3.2V531c0-1.8,1.4-3.2,3.2-3.2h8.3c1.8,0,3.2,1.4,3.2,3.2v70.5h-3.2
			H531.4z"/>
		<rect x="529.7" y="531" class="oven_x002D_door_x002D_rack" width="11.8" height="66.5"/>
		<polygon class="oven_x002D_cavity" points="529.7,597.5 541.5,597.5 541.5,531 		"/>
	</g>
	<g id="TV">
		<path class="metal_x002D_body" d="M556,526c-1.8,0-3.2-1.4-3.2-3.1v-65.7c0-1.7,1.4-3.1,3.2-3.1h95.1c1.8,0,3.2,1.4,3.2,3.1v65.7
			c0,1.7-1.4,3.1-3.2,3.1H556z"/>
		<path id="power-led" class="st21" d="M648.2,522.8c0,0.6-0.5,1-1,1h-2c-0.6,0-1-0.5-1-1l0,0c0-0.6,0.5-1,1-1h2
			C647.7,521.8,648.2,522.2,648.2,522.8L648.2,522.8z"/>
		<rect id="tv-screen" x="553.4" y="458" class="oven_x002D_door_x002D_body" width="100.5" height="62"/>
		<polygon id="tv-screen-highlight" class="oven_x002D_cavity" points="651,517 560.4,517 651,461 		"/>
	</g>
	<g id="sofa">
		<ellipse class="st29" cx="602.7" cy="603.4" rx="60.8" ry="4"/>
		<g>
			<path class="st30" d="M658.3,590.2l2.8,12.2c0.1,0.6-0.1,1-0.4,1l-0.9,0c-0.2,0-0.4-0.2-0.6-0.5l-4.6-12.2
				c-0.1-0.2-0.1-0.5-0.1-0.8c0.2-0.9,0.9-2.9,3.5-0.1C658.2,589.9,658.3,590,658.3,590.2z"/>
			<path class="st31" d="M658.3,590.2c0-0.2-0.1-0.4-0.2-0.5c-0.9-0.9-1.5-1.3-2-1.4c0.9,2.7,3.2,9.5,4.4,15.1l0.2,0
				c0.4,0,0.6-0.4,0.4-1L658.3,590.2z"/>
		</g>
		<g>
			<path class="st30" d="M549.5,590.2l-2.8,12.2c-0.1,0.6,0.1,1,0.4,1l0.9,0c0.2,0,0.4-0.2,0.6-0.5l4.6-12.2
				c0.1-0.2,0.1-0.5,0.1-0.8c-0.2-0.9-0.9-2.9-3.5-0.1C549.6,589.9,549.5,590,549.5,590.2z"/>
			<path class="st31" d="M551.7,588.4c-1,7.4-3.3,12.6-4.6,15c0,0,0.1,0,0.1,0l0.9,0c0.2,0,0.4-0.2,0.6-0.5l4.6-12.2
				c0.1-0.2,0.1-0.5,0.1-0.8C553.1,589.2,552.7,588.1,551.7,588.4z"/>
		</g>
		<path class="st32" d="M548.4,575.6l-3.1-22.4c-0.9-6.7,3.7-12.8,9.8-12.8h97.1c6.1,0,10.8,6.1,9.8,12.8l-3.1,22.4
			C659,575.6,585.5,600.5,548.4,575.6z"/>
		<path class="st33" d="M604,563.2c-32.8,0-48.8,2.5-56.6,5l1,7.3c37.1,24.9,110.6,0,110.6,0l1.1-7.7
			C651.5,565.5,635.2,563.2,604,563.2z"/>
		<path class="st34" d="M649.6,592h-91.8c-9.1,0-16.4-7.3-16.4-16.4v0H666c0,0,0,0,0,0v0C666,584.6,658.7,592,649.6,592z"/>
		<g>
			<path class="st35" d="M603.7,575.6c-0.5-0.6-4.1-5.2-10.3-5.3c-6.3,0-10,4.7-10.5,5.3H603.7z"/>
			<path class="st35" d="M583,575.6c-0.5-0.6-4.1-5.2-10.3-5.3c-6.3,0-10,4.7-10.5,5.3H583z"/>
			<path class="st35" d="M562.3,575.6c-0.5-0.6-4.1-5.2-10.3-5.3c-6.3,0-10,4.7-10.5,5.3H562.3z"/>
			<path class="st35" d="M666,575.6c-0.5-0.6-4.1-5.2-10.3-5.3c-6.3,0-10,4.7-10.5,5.3H666z"/>
			<path class="st35" d="M645.2,575.6c-0.5-0.6-4.1-5.2-10.3-5.3c-6.3,0-10,4.7-10.5,5.3H645.2z"/>
			<path class="st35" d="M624.5,575.6c-0.5-0.6-4.1-5.2-10.3-5.3c-6.3,0-10,4.7-10.5,5.3H624.5z"/>
		</g>
		<g>
			<g>
				<path class="st36" d="M560.8,558.1c0.3-1.4,0.5-3.1,0.7-5c0.2-2.2,0.3-4.2,0.3-5.8c0,1.6,0,3.6,0.3,5.8c0.2,2,0.5,3.7,0.8,5
					C562.2,558.1,561.5,558.1,560.8,558.1z"/>
				<path class="st36" d="M562.9,558.2c-0.3,1.4-0.5,3.1-0.7,5c-0.2,2.2-0.3,4.2-0.3,5.8c0-1.6,0-3.6-0.3-5.8c-0.2-2-0.5-3.7-0.8-5
					C561.5,558.2,562.2,558.2,562.9,558.2z"/>
				<path class="st36" d="M561.9,557c1.1,0.3,2.4,0.6,3.9,0.8c1.8,0.2,3.3,0.3,4.6,0.3c-1.3,0-2.8,0.1-4.6,0.3
					c-1.6,0.2-2.9,0.5-3.9,0.8C561.9,558.5,561.9,557.8,561.9,557z"/>
				<path class="st36" d="M561.8,559.3c-1.1-0.3-2.4-0.6-3.9-0.8c-1.8-0.2-3.3-0.3-4.6-0.3c1.3,0,2.8-0.1,4.6-0.3
					c1.6-0.2,2.9-0.5,3.9-0.8C561.8,557.8,561.8,558.5,561.8,559.3z"/>
				<path class="st37" d="M562.9,558.2c0,0.6-0.5,1.1-1,1.1s-1-0.5-1-1.1c0-0.6,0.5-1.1,1-1.1S562.9,557.5,562.9,558.2z"/>
			</g>
			<g>
				<path class="st36" d="M581.9,558.1c0.3-1.4,0.5-3.1,0.7-5c0.2-2.2,0.3-4.2,0.3-5.8c0,1.6,0,3.6,0.3,5.8c0.2,2,0.5,3.7,0.8,5
					C583.3,558.1,582.6,558.1,581.9,558.1z"/>
				<path class="st36" d="M584,558.2c-0.3,1.4-0.5,3.1-0.7,5c-0.2,2.2-0.3,4.2-0.3,5.8c0-1.6,0-3.6-0.3-5.8c-0.2-2-0.5-3.7-0.8-5
					C582.6,558.2,583.3,558.2,584,558.2z"/>
				<path class="st36" d="M583,557c1.1,0.3,2.4,0.6,3.9,0.8c1.8,0.2,3.3,0.3,4.6,0.3c-1.3,0-2.8,0.1-4.6,0.3
					c-1.6,0.2-2.9,0.5-3.9,0.8C583,558.5,583,557.8,583,557z"/>
				<path class="st36" d="M582.9,559.3c-1.1-0.3-2.4-0.6-3.9-0.8c-1.8-0.2-3.3-0.3-4.6-0.3c1.3,0,2.8-0.1,4.6-0.3
					c1.6-0.2,2.9-0.5,3.9-0.8C582.9,557.8,582.9,558.5,582.9,559.3z"/>
				<path class="st37" d="M584,558.2c0,0.6-0.5,1.1-1,1.1s-1-0.5-1-1.1c0-0.6,0.5-1.1,1-1.1S584,557.5,584,558.2z"/>
			</g>
			<g>
				<path class="st36" d="M602.7,558.1c0.3-1.4,0.5-3.1,0.7-5c0.2-2.2,0.3-4.2,0.3-5.8c0,1.6,0,3.6,0.3,5.8c0.2,2,0.5,3.7,0.8,5
					C604.1,558.1,603.4,558.1,602.7,558.1z"/>
				<path class="st36" d="M604.7,558.2c-0.3,1.4-0.5,3.1-0.7,5c-0.2,2.2-0.3,4.2-0.3,5.8c0-1.6,0-3.6-0.3-5.8c-0.2-2-0.5-3.7-0.8-5
					C603.4,558.2,604.1,558.2,604.7,558.2z"/>
				<path class="st36" d="M603.8,557c1.1,0.3,2.4,0.6,3.9,0.8c1.8,0.2,3.3,0.3,4.6,0.3c-1.3,0-2.8,0.1-4.6,0.3
					c-1.6,0.2-2.9,0.5-3.9,0.8C603.8,558.5,603.8,557.8,603.8,557z"/>
				<path class="st36" d="M603.7,559.3c-1.1-0.3-2.4-0.6-3.9-0.8c-1.8-0.2-3.3-0.3-4.6-0.3c1.3,0,2.8-0.1,4.6-0.3
					c1.6-0.2,2.9-0.5,3.9-0.8C603.7,557.8,603.7,558.5,603.7,559.3z"/>
				<path class="st37" d="M604.7,558.2c0,0.6-0.5,1.1-1,1.1s-1-0.5-1-1.1c0-0.6,0.5-1.1,1-1.1S604.7,557.5,604.7,558.2z"/>
			</g>
			<g>
				<path class="st36" d="M623.5,558.1c0.3-1.4,0.5-3.1,0.7-5c0.2-2.2,0.3-4.2,0.3-5.8c0,1.6,0,3.6,0.3,5.8c0.2,2,0.5,3.7,0.8,5
					C624.8,558.1,624.2,558.1,623.5,558.1z"/>
				<path class="st36" d="M625.5,558.2c-0.3,1.4-0.5,3.1-0.7,5c-0.2,2.2-0.3,4.2-0.3,5.8c0-1.6,0-3.6-0.3-5.8c-0.2-2-0.5-3.7-0.8-5
					C624.2,558.2,624.8,558.2,625.5,558.2z"/>
				<path class="st36" d="M624.6,557c1.1,0.3,2.4,0.6,3.9,0.8c1.8,0.2,3.3,0.3,4.6,0.3c-1.3,0-2.8,0.1-4.6,0.3
					c-1.6,0.2-2.9,0.5-3.9,0.8C624.6,558.5,624.6,557.8,624.6,557z"/>
				<path class="st36" d="M624.4,559.3c-1.1-0.3-2.4-0.6-3.9-0.8c-1.8-0.2-3.3-0.3-4.6-0.3c1.3,0,2.8-0.1,4.6-0.3
					c1.6-0.2,2.9-0.5,3.9-0.8C624.4,557.8,624.4,558.5,624.4,559.3z"/>
				<path class="st37" d="M625.5,558.2c0,0.6-0.5,1.1-1,1.1s-1-0.5-1-1.1c0-0.6,0.5-1.1,1-1.1S625.5,557.5,625.5,558.2z"/>
			</g>
			<g>
				<path class="st36" d="M644.2,558.1c0.3-1.4,0.5-3.1,0.7-5c0.2-2.2,0.3-4.2,0.3-5.8c0,1.6,0,3.6,0.3,5.8c0.2,2,0.5,3.7,0.8,5
					C645.6,558.1,644.9,558.1,644.2,558.1z"/>
				<path class="st36" d="M646.2,558.2c-0.3,1.4-0.5,3.1-0.7,5c-0.2,2.2-0.3,4.2-0.3,5.8c0-1.6,0-3.6-0.3-5.8c-0.2-2-0.5-3.7-0.8-5
					C644.9,558.2,645.6,558.2,646.2,558.2z"/>
				<path class="st36" d="M645.3,557c1.1,0.3,2.4,0.6,3.9,0.8c1.8,0.2,3.3,0.3,4.6,0.3c-1.3,0-2.8,0.1-4.6,0.3
					c-1.6,0.2-2.9,0.5-3.9,0.8C645.3,558.5,645.3,557.8,645.3,557z"/>
				<path class="st36" d="M645.2,559.3c-1.1-0.3-2.4-0.6-3.9-0.8c-1.8-0.2-3.3-0.3-4.6-0.3c1.3,0,2.8-0.1,4.6-0.3
					c1.6-0.2,2.9-0.5,3.9-0.8C645.2,557.8,645.2,558.5,645.2,559.3z"/>
				<path class="st37" d="M646.2,558.2c0,0.6-0.5,1.1-1,1.1s-1-0.5-1-1.1c0-0.6,0.5-1.1,1-1.1S646.2,557.5,646.2,558.2z"/>
			</g>
		</g>
		<path class="st38" d="M666,583.4v-7.8c-9.6,2.2-32.6,13.6-63.3,13.6c-31.5,0-53-11.6-61.2-13.8v8c0,4.8,3.5,8.6,7.7,8.6h109.1
			C662.5,592,666,588.1,666,583.4z"/>
		<path class="st39" d="M547.4,549.8c-0.2,2.4,0.8,5,1.7,5c0.8,0,0.8-2.5,2.6-5.7c2.4-4.5,5.9-5.7,5.6-6.6c-0.3-0.8-3.3-0.4-5.6,1
			C551.1,543.9,547.7,546,547.4,549.8z"/>
		<path class="st39" d="M562.9,562c-0.1,0.8-0.1,1.7,0.1,1.9c0.7,0.3,3.3-3.2,2.7-4.3c-0.3-0.5-1.5-0.5-2.2,0.1
			C563.1,560.2,563,561,562.9,562z"/>
		<path class="st39" d="M584,561.4c-0.1,0.6-0.1,1.3,0.1,1.4c0.6,0.3,2.7-2.4,2.2-3.2c-0.3-0.4-1.2-0.4-1.8,0.1
			C584.2,560,584.1,560.6,584,561.4z"/>
		<path class="st39" d="M604.8,561.4c-0.1,0.6-0.1,1.3,0.1,1.4c0.6,0.3,2.7-2.4,2.2-3.2c-0.3-0.4-1.2-0.4-1.8,0.1
			C604.9,560,604.9,560.6,604.8,561.4z"/>
		<path class="st39" d="M625.6,561.4c-0.1,0.6-0.1,1.3,0.1,1.4c0.6,0.3,2.7-2.4,2.2-3.2c-0.3-0.4-1.2-0.4-1.8,0.1
			C625.7,560,625.7,560.6,625.6,561.4z"/>
		<path class="st39" d="M646.3,562c-0.1,0.8-0.1,1.7,0.1,1.9c0.7,0.3,3.3-3.2,2.7-4.3c-0.3-0.5-1.5-0.5-2.2,0.1
			C646.5,560.2,646.4,561,646.3,562z"/>
	</g>
</g>
</svg>
